<svg xmlns="http://www.w3.org/2000/svg" xmlns:xlink="http://www.w3.org/1999/xlink" width="2000" zoomAndPan="magnify" viewBox="0 0 1500 1499.999933" height="2000" preserveAspectRatio="xMidYMid meet" version="1.0"><defs><g/><clipPath id="9876a31b4a"><path d="M 160 328.199219 L 596 328.199219 L 596 568 L 160 568 Z M 160 328.199219 " clip-rule="nonzero"/></clipPath><clipPath id="5302c7f0dc"><path d="M 98.675781 525.515625 L 949.964844 525.515625 L 949.964844 836.699219 L 98.675781 836.699219 Z M 98.675781 525.515625 " clip-rule="nonzero"/></clipPath><clipPath id="3a80056af3"><rect x="0" width="1166" y="0" height="286"/></clipPath><clipPath id="d241efb02f"><rect x="0" width="637" y="0" height="49"/></clipPath></defs><g clip-path="url(#9876a31b4a)"><path fill="#094886" d="M 341.945312 471.351562 C 403.1875 471.195312 464.957031 481.769531 524.359375 503.761719 L 524.359375 528.203125 C 410.8125 526.464844 308.445312 541.269531 231.503906 567.980469 L 231.503906 489.523438 L 160.40625 453.78125 L 377.933594 328.199219 L 595.464844 453.78125 L 524.386719 489.515625 C 464.34375 472.519531 402.582031 466.683594 341.945312 471.351562 " fill-opacity="1" fill-rule="nonzero"/></g><g clip-path="url(#5302c7f0dc)"><path fill="#094886" d="M 949.964844 592.050781 C 867.582031 568.613281 767.097656 554.835938 658.636719 554.835938 C 612.144531 554.835938 567.121094 557.363281 524.359375 562.109375 C 401.976562 575.660156 298.117188 607.296875 231.503906 649.453125 C 181.390625 681.167969 152.351562 718.835938 152.351562 759.238281 C 152.351562 786.792969 165.867188 813.074219 190.355469 837.066406 C 132.667969 804.769531 98.675781 765.117188 98.675781 722.257812 C 98.675781 670.027344 149.164062 622.546875 231.503906 587.355469 C 307.085938 555.046875 409.503906 533.09375 524.359375 527.289062 C 544.355469 526.273438 564.730469 525.757812 585.414062 525.757812 C 730.515625 525.757812 860.789062 551.390625 949.964844 592.050781 " fill-opacity="1" fill-rule="nonzero"/></g><g transform="matrix(1, 0, 0, 1, 195, 608)"><g clip-path="url(#3a80056af3)"><g fill="#094886" fill-opacity="1"><g transform="translate(1.320461, 223.454175)"><g><path d="M 5.015625 0 L 5.015625 -10.65625 L 12.109375 -10.65625 C 13.773438 -10.65625 15.375 -11 16.90625 -11.6875 C 18.4375 -12.382812 19.65625 -13.640625 20.5625 -15.453125 C 21.46875 -17.265625 21.921875 -19.769531 21.921875 -22.96875 L 21.921875 -125.703125 C 21.921875 -129.035156 21.429688 -131.640625 20.453125 -133.515625 C 19.484375 -135.398438 18.195312 -136.691406 16.59375 -137.390625 C 15 -138.085938 13.15625 -138.4375 11.0625 -138.4375 L 5.015625 -138.4375 L 5.015625 -149.078125 L 68.6875 -149.078125 L 68.6875 -138.4375 L 62.015625 -138.4375 C 59.648438 -138.4375 57.703125 -138.085938 56.171875 -137.390625 C 54.640625 -136.691406 53.523438 -135.472656 52.828125 -133.734375 C 52.128906 -131.992188 51.78125 -129.523438 51.78125 -126.328125 L 51.78125 -12.3125 L 85.390625 -12.3125 C 88.179688 -12.3125 90.550781 -12.972656 92.5 -14.296875 C 94.445312 -15.617188 96.082031 -17.632812 97.40625 -20.34375 C 98.726562 -23.0625 99.738281 -26.441406 100.4375 -30.484375 L 103.5625 -46.140625 L 113.796875 -46.140625 L 112.546875 0 Z M 5.015625 0 "/></g></g></g><g fill="#094886" fill-opacity="1"><g transform="translate(120.731695, 223.454175)"><g><path d="M 55.953125 2.09375 C 40.222656 2.09375 28.359375 -2.953125 20.359375 -13.046875 C 12.359375 -23.140625 8.359375 -37.234375 8.359375 -55.328125 C 8.359375 -74.953125 12.359375 -89.707031 20.359375 -99.59375 C 28.359375 -109.476562 39.53125 -114.421875 53.875 -114.421875 C 67.238281 -114.421875 77.742188 -110.175781 85.390625 -101.6875 C 93.046875 -93.195312 96.875 -80.664062 96.875 -64.09375 L 96.875 -54.078125 L 37.375 -54.078125 C 37.65625 -39.742188 39.914062 -29.234375 44.15625 -22.546875 C 48.40625 -15.867188 54.632812 -12.53125 62.84375 -12.53125 C 69.113281 -12.53125 74.195312 -14.234375 78.09375 -17.640625 C 81.988281 -21.054688 84.976562 -25.195312 87.0625 -30.0625 C 88.738281 -29.507812 90.203125 -28.5 91.453125 -27.03125 C 92.703125 -25.570312 93.328125 -23.660156 93.328125 -21.296875 C 93.328125 -17.953125 92.070312 -14.4375 89.5625 -10.75 C 87.0625 -7.0625 83.0625 -4 77.5625 -1.5625 C 72.070312 0.875 64.867188 2.09375 55.953125 2.09375 Z M 68.484375 -66.609375 C 68.484375 -77.460938 67.40625 -86.019531 65.25 -92.28125 C 63.09375 -98.550781 59.507812 -101.6875 54.5 -101.6875 C 49.488281 -101.6875 45.484375 -98.65625 42.484375 -92.59375 C 39.492188 -86.539062 37.929688 -77.878906 37.796875 -66.609375 Z M 68.484375 -66.609375 "/></g></g></g><g fill="#094886" fill-opacity="1"><g transform="translate(225.320901, 223.454175)"><g><path d="M 36.546875 2.09375 C 31.253906 2.09375 26.445312 0.875 22.125 -1.5625 C 17.8125 -4 14.367188 -7.757812 11.796875 -12.84375 C 9.222656 -17.925781 7.9375 -24.296875 7.9375 -31.953125 C 7.9375 -43.222656 11.3125 -51.503906 18.0625 -56.796875 C 24.8125 -62.085938 35.007812 -65.007812 48.65625 -65.5625 L 63.46875 -66.1875 L 63.46875 -78.09375 C 63.46875 -83.238281 63.117188 -87.585938 62.421875 -91.140625 C 61.734375 -94.691406 60.519531 -97.441406 58.78125 -99.390625 C 57.039062 -101.335938 54.566406 -102.3125 51.359375 -102.3125 C 48.441406 -102.3125 46.078125 -101.40625 44.265625 -99.59375 C 42.453125 -97.78125 41.160156 -95.203125 40.390625 -91.859375 C 39.628906 -88.523438 39.25 -84.492188 39.25 -79.765625 C 31.320312 -79.765625 25.40625 -80.84375 21.5 -83 C 17.601562 -85.15625 15.65625 -88.597656 15.65625 -93.328125 C 15.65625 -98.203125 17.359375 -102.203125 20.765625 -105.328125 C 24.179688 -108.460938 28.742188 -110.757812 34.453125 -112.21875 C 40.160156 -113.6875 46.5625 -114.421875 53.65625 -114.421875 C 66.46875 -114.421875 76.109375 -111.773438 82.578125 -106.484375 C 89.046875 -101.191406 92.28125 -92.003906 92.28125 -78.921875 L 92.28125 -25.46875 C 92.28125 -21.570312 92.628906 -18.578125 93.328125 -16.484375 C 94.023438 -14.398438 95.171875 -12.90625 96.765625 -12 C 98.367188 -11.101562 100.566406 -10.65625 103.359375 -10.65625 L 103.984375 -10.65625 L 103.984375 0 L 69.109375 0 L 65.359375 -15.03125 L 63.6875 -15.03125 C 61.039062 -11.414062 58.53125 -8.316406 56.15625 -5.734375 C 53.789062 -3.160156 51.078125 -1.210938 48.015625 0.109375 C 44.960938 1.429688 41.140625 2.09375 36.546875 2.09375 Z M 47.1875 -11.90625 C 50.664062 -11.90625 53.625 -13.085938 56.0625 -15.453125 C 58.5 -17.816406 60.378906 -21.117188 61.703125 -25.359375 C 63.023438 -29.609375 63.6875 -34.445312 63.6875 -39.875 L 63.6875 -55.953125 L 55.953125 -55.328125 C 51.359375 -54.910156 47.671875 -53.757812 44.890625 -51.875 C 42.109375 -50 40.160156 -47.320312 39.046875 -43.84375 C 37.929688 -40.363281 37.375 -36.050781 37.375 -30.90625 C 37.375 -26.863281 37.722656 -23.414062 38.421875 -20.5625 C 39.117188 -17.707031 40.195312 -15.550781 41.65625 -14.09375 C 43.113281 -12.632812 44.957031 -11.90625 47.1875 -11.90625 Z M 47.1875 -11.90625 "/></g></g></g><g fill="#094886" fill-opacity="1"><g transform="translate(335.129152, 223.454175)"><g><path d="M 3.34375 0 L 3.34375 -10.65625 L 4.171875 -10.65625 C 6.816406 -10.65625 9.148438 -11 11.171875 -11.6875 C 13.191406 -12.382812 14.789062 -13.8125 15.96875 -15.96875 C 17.15625 -18.125 17.75 -21.363281 17.75 -25.6875 L 17.75 -87.0625 C 17.75 -91.238281 17.222656 -94.335938 16.171875 -96.359375 C 15.128906 -98.378906 13.671875 -99.703125 11.796875 -100.328125 C 9.921875 -100.953125 7.660156 -101.265625 5.015625 -101.265625 L 4.390625 -101.265625 L 4.390625 -111.921875 L 41.546875 -111.921875 L 45.09375 -91.03125 L 45.9375 -91.03125 C 47.882812 -96.039062 50.078125 -100.25 52.515625 -103.65625 C 54.953125 -107.070312 57.910156 -109.6875 61.390625 -111.5 C 64.867188 -113.3125 68.972656 -114.21875 73.703125 -114.21875 C 80.523438 -114.21875 85.46875 -112.546875 88.53125 -109.203125 C 91.59375 -105.859375 93.125 -101.539062 93.125 -96.25 C 93.125 -90.40625 91.101562 -85.984375 87.0625 -82.984375 C 83.03125 -79.992188 77.328125 -78.5 69.953125 -78.5 C 69.953125 -82.40625 69.707031 -85.609375 69.21875 -88.109375 C 68.726562 -90.617188 67.890625 -92.535156 66.703125 -93.859375 C 65.523438 -95.179688 63.753906 -95.84375 61.390625 -95.84375 C 58.878906 -95.84375 56.71875 -94.691406 54.90625 -92.390625 C 53.101562 -90.097656 51.570312 -87.070312 50.3125 -83.3125 C 49.0625 -79.550781 48.125 -75.40625 47.5 -70.875 C 46.875 -66.351562 46.5625 -61.867188 46.5625 -57.421875 L 46.5625 -24.640625 C 46.5625 -20.597656 47.082031 -17.566406 48.125 -15.546875 C 49.164062 -13.535156 50.625 -12.21875 52.5 -11.59375 C 54.382812 -10.96875 56.507812 -10.65625 58.875 -10.65625 L 64.734375 -10.65625 L 64.734375 0 Z M 3.34375 0 "/></g></g></g><g fill="#094886" fill-opacity="1"><g transform="translate(431.159153, 223.454175)"><g><path d="M 3.34375 0 L 3.34375 -10.65625 L 4.390625 -10.65625 C 7.171875 -10.65625 9.566406 -10.96875 11.578125 -11.59375 C 13.597656 -12.21875 15.164062 -13.570312 16.28125 -15.65625 C 17.394531 -17.75 17.953125 -20.953125 17.953125 -25.265625 L 17.953125 -87.6875 C 17.953125 -91.59375 17.429688 -94.519531 16.390625 -96.46875 C 15.347656 -98.414062 13.882812 -99.703125 12 -100.328125 C 10.125 -100.953125 7.863281 -101.265625 5.21875 -101.265625 L 4.390625 -101.265625 L 4.390625 -111.921875 L 43.4375 -111.921875 L 45.9375 -96.671875 L 46.765625 -96.671875 C 49.554688 -102.515625 53.070312 -106.929688 57.3125 -109.921875 C 61.5625 -112.921875 67.304688 -114.421875 74.546875 -114.421875 C 84.285156 -114.421875 91.695312 -111.21875 96.78125 -104.8125 C 101.863281 -98.414062 104.40625 -88.117188 104.40625 -73.921875 L 104.40625 -25.46875 C 104.40625 -21.15625 104.820312 -17.953125 105.65625 -15.859375 C 106.488281 -13.773438 107.773438 -12.382812 109.515625 -11.6875 C 111.253906 -11 113.515625 -10.65625 116.296875 -10.65625 L 117.140625 -10.65625 L 117.140625 0 L 75.796875 0 L 75.796875 -69.53125 C 75.796875 -78.4375 74.851562 -85.394531 72.96875 -90.40625 C 71.09375 -95.414062 67.582031 -97.921875 62.4375 -97.921875 C 58.53125 -97.921875 55.394531 -96.351562 53.03125 -93.21875 C 50.664062 -90.09375 48.992188 -86.023438 48.015625 -81.015625 C 47.046875 -76.003906 46.5625 -70.644531 46.5625 -64.9375 L 46.5625 -24.21875 C 46.5625 -20.320312 47.046875 -17.398438 48.015625 -15.453125 C 48.992188 -13.503906 50.421875 -12.21875 52.296875 -11.59375 C 54.179688 -10.96875 56.445312 -10.65625 59.09375 -10.65625 L 59.921875 -10.65625 L 59.921875 0 Z M 3.34375 0 "/></g></g></g><g fill="#094886" fill-opacity="1"><g transform="translate(552.866771, 223.454175)"><g><path d="M 5.015625 0 L 5.015625 -10.65625 L 11.90625 -10.65625 C 14.125 -10.65625 15.960938 -11.070312 17.421875 -11.90625 C 18.890625 -12.738281 20.003906 -14.128906 20.765625 -16.078125 C 21.535156 -18.023438 21.921875 -20.597656 21.921875 -23.796875 L 21.921875 -125.703125 C 21.921875 -129.316406 21.398438 -132.023438 20.359375 -133.828125 C 19.316406 -135.640625 18.03125 -136.859375 16.5 -137.484375 C 14.96875 -138.117188 13.296875 -138.4375 11.484375 -138.4375 L 5.015625 -138.4375 L 5.015625 -149.078125 L 60.765625 -149.078125 C 78.160156 -149.078125 91.347656 -146.222656 100.328125 -140.515625 C 109.304688 -134.804688 113.796875 -125.550781 113.796875 -112.75 C 113.796875 -106.488281 112.609375 -101.128906 110.234375 -96.671875 C 107.867188 -92.210938 104.738281 -88.625 100.84375 -85.90625 C 96.945312 -83.195312 92.703125 -81.078125 88.109375 -79.546875 L 88.109375 -78.5 C 94.234375 -77.394531 99.625 -75.3125 104.28125 -72.25 C 108.945312 -69.1875 112.601562 -65.039062 115.25 -59.8125 C 117.894531 -54.59375 119.21875 -48.226562 119.21875 -40.71875 C 119.21875 -27.070312 114.867188 -16.875 106.171875 -10.125 C 97.472656 -3.375 84.144531 0 66.1875 0 Z M 64.09375 -12.3125 C 71.894531 -12.3125 77.742188 -14.46875 81.640625 -18.78125 C 85.535156 -23.101562 87.484375 -30.625 87.484375 -41.34375 C 87.484375 -48.300781 86.679688 -54.039062 85.078125 -58.5625 C 83.484375 -63.09375 81.015625 -66.46875 77.671875 -68.6875 C 74.328125 -70.914062 69.875 -72.03125 64.3125 -72.03125 L 51.359375 -72.03125 L 51.359375 -12.3125 Z M 59.5 -84.140625 C 64.9375 -84.140625 69.359375 -85.078125 72.765625 -86.953125 C 76.171875 -88.835938 78.707031 -91.765625 80.375 -95.734375 C 82.050781 -99.703125 82.890625 -104.882812 82.890625 -111.28125 C 82.890625 -121.03125 80.90625 -127.710938 76.9375 -131.328125 C 72.96875 -134.953125 67.019531 -136.765625 59.09375 -136.765625 L 51.359375 -136.765625 L 51.359375 -84.140625 Z M 59.5 -84.140625 "/></g></g></g><g fill="#094886" fill-opacity="1"><g transform="translate(679.584658, 223.454175)"><g><path d="M 3.34375 0 L 3.34375 -10.65625 L 4.171875 -10.65625 C 6.816406 -10.65625 9.148438 -11 11.171875 -11.6875 C 13.191406 -12.382812 14.789062 -13.8125 15.96875 -15.96875 C 17.15625 -18.125 17.75 -21.363281 17.75 -25.6875 L 17.75 -87.0625 C 17.75 -91.238281 17.222656 -94.335938 16.171875 -96.359375 C 15.128906 -98.378906 13.671875 -99.703125 11.796875 -100.328125 C 9.921875 -100.953125 7.660156 -101.265625 5.015625 -101.265625 L 4.390625 -101.265625 L 4.390625 -111.921875 L 41.546875 -111.921875 L 45.09375 -91.03125 L 45.9375 -91.03125 C 47.882812 -96.039062 50.078125 -100.25 52.515625 -103.65625 C 54.953125 -107.070312 57.910156 -109.6875 61.390625 -111.5 C 64.867188 -113.3125 68.972656 -114.21875 73.703125 -114.21875 C 80.523438 -114.21875 85.46875 -112.546875 88.53125 -109.203125 C 91.59375 -105.859375 93.125 -101.539062 93.125 -96.25 C 93.125 -90.40625 91.101562 -85.984375 87.0625 -82.984375 C 83.03125 -79.992188 77.328125 -78.5 69.953125 -78.5 C 69.953125 -82.40625 69.707031 -85.609375 69.21875 -88.109375 C 68.726562 -90.617188 67.890625 -92.535156 66.703125 -93.859375 C 65.523438 -95.179688 63.753906 -95.84375 61.390625 -95.84375 C 58.878906 -95.84375 56.71875 -94.691406 54.90625 -92.390625 C 53.101562 -90.097656 51.570312 -87.070312 50.3125 -83.3125 C 49.0625 -79.550781 48.125 -75.40625 47.5 -70.875 C 46.875 -66.351562 46.5625 -61.867188 46.5625 -57.421875 L 46.5625 -24.640625 C 46.5625 -20.597656 47.082031 -17.566406 48.125 -15.546875 C 49.164062 -13.535156 50.625 -12.21875 52.5 -11.59375 C 54.382812 -10.96875 56.507812 -10.65625 58.875 -10.65625 L 64.734375 -10.65625 L 64.734375 0 Z M 3.34375 0 "/></g></g></g><g fill="#094886" fill-opacity="1"><g transform="translate(775.614659, 223.454175)"><g><path d="M 2.921875 0 L 2.921875 -10.65625 L 5.015625 -10.65625 C 7.660156 -10.65625 9.921875 -11.035156 11.796875 -11.796875 C 13.671875 -12.566406 15.164062 -14.03125 16.28125 -16.1875 C 17.394531 -18.34375 17.953125 -21.4375 17.953125 -25.46875 L 17.953125 -87.28125 C 17.953125 -91.039062 17.394531 -93.925781 16.28125 -95.9375 C 15.164062 -97.957031 13.671875 -99.347656 11.796875 -100.109375 C 9.921875 -100.878906 7.796875 -101.265625 5.421875 -101.265625 L 2.71875 -101.265625 L 2.71875 -111.921875 L 46.359375 -111.921875 L 46.359375 -25.46875 C 46.359375 -21.570312 46.910156 -18.507812 48.015625 -16.28125 C 49.128906 -14.0625 50.660156 -12.566406 52.609375 -11.796875 C 54.566406 -11.035156 56.796875 -10.65625 59.296875 -10.65625 L 61.390625 -10.65625 L 61.390625 0 Z M 31.3125 -131.546875 C 26.863281 -131.546875 23.109375 -132.691406 20.046875 -134.984375 C 16.984375 -137.285156 15.453125 -140.867188 15.453125 -145.734375 C 15.453125 -150.742188 16.984375 -154.363281 20.046875 -156.59375 C 23.109375 -158.820312 26.863281 -159.9375 31.3125 -159.9375 C 35.632812 -159.9375 39.394531 -158.859375 42.59375 -156.703125 C 45.789062 -154.546875 47.390625 -150.890625 47.390625 -145.734375 C 47.390625 -140.867188 45.789062 -137.285156 42.59375 -134.984375 C 39.394531 -132.691406 35.632812 -131.546875 31.3125 -131.546875 Z M 31.3125 -131.546875 "/></g></g></g><g fill="#094886" fill-opacity="1"><g transform="translate(840.12177, 223.454175)"><g><path d="M 45.09375 2.09375 C 37.164062 2.09375 30.453125 0.078125 24.953125 -3.953125 C 19.453125 -7.992188 15.273438 -14.296875 12.421875 -22.859375 C 9.566406 -31.421875 8.140625 -42.382812 8.140625 -55.75 C 8.140625 -69.25 9.566406 -80.3125 12.421875 -88.9375 C 15.273438 -97.570312 19.453125 -103.941406 24.953125 -108.046875 C 30.453125 -112.160156 37.097656 -114.21875 44.890625 -114.21875 C 51.710938 -114.21875 57.175781 -112.6875 61.28125 -109.625 C 65.382812 -106.5625 68.691406 -102.660156 71.203125 -97.921875 L 72.25 -97.921875 C 71.96875 -101.265625 71.828125 -104.953125 71.828125 -108.984375 C 71.828125 -113.023438 71.828125 -117.066406 71.828125 -121.109375 L 71.828125 -134.890625 C 71.828125 -138.785156 71.128906 -141.671875 69.734375 -143.546875 C 68.347656 -145.421875 66.539062 -146.632812 64.3125 -147.1875 C 62.082031 -147.75 59.710938 -148.03125 57.203125 -148.03125 L 55.546875 -148.03125 L 55.546875 -158.6875 L 100.4375 -158.6875 L 100.4375 -26.3125 C 100.4375 -22.132812 100.988281 -18.894531 102.09375 -16.59375 C 103.207031 -14.300781 104.773438 -12.738281 106.796875 -11.90625 C 108.816406 -11.070312 111.21875 -10.65625 114 -10.65625 L 115.671875 -10.65625 L 115.671875 0 L 78.921875 0 L 74.328125 -16.90625 L 73.5 -16.90625 C 70.71875 -11.0625 67.0625 -6.429688 62.53125 -3.015625 C 58.007812 0.390625 52.195312 2.09375 45.09375 2.09375 Z M 53.453125 -12.53125 C 60.273438 -12.53125 65.039062 -16.253906 67.75 -23.703125 C 70.46875 -31.148438 71.828125 -41.898438 71.828125 -55.953125 C 71.828125 -70.148438 70.535156 -81.039062 67.953125 -88.625 C 65.378906 -96.21875 60.546875 -100.015625 53.453125 -100.015625 C 49.691406 -100.015625 46.59375 -98.304688 44.15625 -94.890625 C 41.71875 -91.484375 39.941406 -86.507812 38.828125 -79.96875 C 37.722656 -73.425781 37.171875 -65.351562 37.171875 -55.75 C 37.171875 -41.269531 38.421875 -30.445312 40.921875 -23.28125 C 43.429688 -16.113281 47.609375 -12.53125 53.453125 -12.53125 Z M 53.453125 -12.53125 "/></g></g></g><g fill="#094886" fill-opacity="1"><g transform="translate(958.698002, 223.454175)"><g><path d="M 43.015625 49.28125 C 28.535156 49.28125 17.742188 46.773438 10.640625 41.765625 C 3.546875 36.753906 0 29.65625 0 20.46875 C 0 15.457031 1.039062 11.140625 3.125 7.515625 C 5.21875 3.898438 8.140625 0.976562 11.890625 -1.25 C 15.648438 -3.476562 19.898438 -4.867188 24.640625 -5.421875 C 21.296875 -6.816406 18.160156 -8.835938 15.234375 -11.484375 C 12.316406 -14.128906 10.859375 -17.816406 10.859375 -22.546875 C 10.859375 -27.140625 12.390625 -31.109375 15.453125 -34.453125 C 18.515625 -37.796875 22.550781 -40.859375 27.5625 -43.640625 C 21.851562 -46.003906 17.082031 -49.9375 13.25 -55.4375 C 9.425781 -60.9375 7.515625 -67.722656 7.515625 -75.796875 C 7.515625 -88.046875 10.75 -97.546875 17.21875 -104.296875 C 23.695312 -111.046875 33.6875 -114.421875 47.1875 -114.421875 C 51.914062 -114.421875 56.085938 -113.894531 59.703125 -112.84375 C 63.328125 -111.800781 66.601562 -110.304688 69.53125 -108.359375 C 71.34375 -110.304688 73.1875 -112.1875 75.0625 -114 C 76.9375 -115.8125 79.054688 -117.34375 81.421875 -118.59375 C 83.796875 -119.84375 86.515625 -120.46875 89.578125 -120.46875 C 93.609375 -120.46875 96.632812 -119.285156 98.65625 -116.921875 C 100.675781 -114.554688 101.6875 -111.773438 101.6875 -108.578125 C 101.6875 -105.234375 100.78125 -102.34375 98.96875 -99.90625 C 97.15625 -97.46875 93.953125 -96.25 89.359375 -96.25 C 89.359375 -99.175781 88.660156 -101.40625 87.265625 -102.9375 C 85.878906 -104.46875 84.421875 -105.234375 82.890625 -105.234375 C 81.492188 -105.234375 80.273438 -104.953125 79.234375 -104.390625 C 78.191406 -103.835938 77.179688 -103.285156 76.203125 -102.734375 C 78.847656 -99.941406 81.144531 -96.492188 83.09375 -92.390625 C 85.050781 -88.285156 86.03125 -83.101562 86.03125 -76.84375 C 86.03125 -65.84375 82.894531 -56.894531 76.625 -50 C 70.363281 -43.113281 60.550781 -39.671875 47.1875 -39.671875 C 45.789062 -39.671875 43.976562 -39.738281 41.75 -39.875 C 39.53125 -40.019531 37.863281 -40.300781 36.75 -40.71875 C 35.21875 -39.738281 33.753906 -38.238281 32.359375 -36.21875 C 30.972656 -34.207031 30.28125 -31.878906 30.28125 -29.234375 C 30.28125 -26.585938 31.148438 -24.671875 32.890625 -23.484375 C 34.628906 -22.304688 36.957031 -21.71875 39.875 -21.71875 L 60.765625 -21.71875 C 68.972656 -21.71875 75.648438 -20.425781 80.796875 -17.84375 C 85.953125 -15.269531 89.816406 -11.648438 92.390625 -6.984375 C 94.960938 -2.328125 96.25 3.203125 96.25 9.609375 C 96.25 21.859375 91.898438 31.53125 83.203125 38.625 C 74.503906 45.726562 61.109375 49.28125 43.015625 49.28125 Z M 43.4375 37.375 C 50.394531 37.375 56.097656 36.46875 60.546875 34.65625 C 65.003906 32.851562 68.3125 30.3125 70.46875 27.03125 C 72.625 23.757812 73.703125 20.039062 73.703125 15.875 C 73.703125 11.28125 72.519531 7.867188 70.15625 5.640625 C 67.789062 3.410156 64.171875 2.296875 59.296875 2.296875 L 38 2.296875 C 35.632812 2.296875 33.234375 2.78125 30.796875 3.75 C 28.359375 4.726562 26.300781 6.503906 24.625 9.078125 C 22.957031 11.660156 22.125 15.242188 22.125 19.828125 C 22.125 23.453125 22.992188 26.585938 24.734375 29.234375 C 26.484375 31.878906 28.957031 33.894531 32.15625 35.28125 C 35.351562 36.675781 39.113281 37.375 43.4375 37.375 Z M 46.765625 -51.359375 C 50.523438 -51.359375 53.378906 -52.332031 55.328125 -54.28125 C 57.273438 -56.226562 58.628906 -59.082031 59.390625 -62.84375 C 60.160156 -66.601562 60.546875 -71.054688 60.546875 -76.203125 C 60.546875 -81.640625 60.160156 -86.335938 59.390625 -90.296875 C 58.628906 -94.265625 57.238281 -97.289062 55.21875 -99.375 C 53.207031 -101.46875 50.390625 -102.515625 46.765625 -102.515625 C 43.285156 -102.515625 40.535156 -101.4375 38.515625 -99.28125 C 36.503906 -97.125 35.078125 -94.0625 34.234375 -90.09375 C 33.398438 -86.125 32.984375 -81.425781 32.984375 -76 C 32.984375 -68.488281 33.957031 -62.503906 35.90625 -58.046875 C 37.863281 -53.585938 41.484375 -51.359375 46.765625 -51.359375 Z M 46.765625 -51.359375 "/></g></g></g><g fill="#094886" fill-opacity="1"><g transform="translate(1060.782097, 223.454175)"><g><path d="M 55.953125 2.09375 C 40.222656 2.09375 28.359375 -2.953125 20.359375 -13.046875 C 12.359375 -23.140625 8.359375 -37.234375 8.359375 -55.328125 C 8.359375 -74.953125 12.359375 -89.707031 20.359375 -99.59375 C 28.359375 -109.476562 39.53125 -114.421875 53.875 -114.421875 C 67.238281 -114.421875 77.742188 -110.175781 85.390625 -101.6875 C 93.046875 -93.195312 96.875 -80.664062 96.875 -64.09375 L 96.875 -54.078125 L 37.375 -54.078125 C 37.65625 -39.742188 39.914062 -29.234375 44.15625 -22.546875 C 48.40625 -15.867188 54.632812 -12.53125 62.84375 -12.53125 C 69.113281 -12.53125 74.195312 -14.234375 78.09375 -17.640625 C 81.988281 -21.054688 84.976562 -25.195312 87.0625 -30.0625 C 88.738281 -29.507812 90.203125 -28.5 91.453125 -27.03125 C 92.703125 -25.570312 93.328125 -23.660156 93.328125 -21.296875 C 93.328125 -17.953125 92.070312 -14.4375 89.5625 -10.75 C 87.0625 -7.0625 83.0625 -4 77.5625 -1.5625 C 72.070312 0.875 64.867188 2.09375 55.953125 2.09375 Z M 68.484375 -66.609375 C 68.484375 -77.460938 67.40625 -86.019531 65.25 -92.28125 C 63.09375 -98.550781 59.507812 -101.6875 54.5 -101.6875 C 49.488281 -101.6875 45.484375 -98.65625 42.484375 -92.59375 C 39.492188 -86.539062 37.929688 -77.878906 37.796875 -66.609375 Z M 68.484375 -66.609375 "/></g></g></g></g></g><g transform="matrix(1, 0, 0, 1, 435, 879)"><g clip-path="url(#d241efb02f)"><g fill="#2563eb" fill-opacity="1"><g transform="translate(0.46652, 36.090415)"><g><path d="M 2.828125 0 L 2.828125 -33.28125 L 6.75 -33.28125 L 6.75 -3.5 L 20.953125 -3.5 L 20.953125 0 Z M 2.828125 0 "/></g></g></g><g fill="#2563eb" fill-opacity="1"><g transform="translate(27.978594, 36.090415)"><g><path d="M 2.828125 0 L 2.828125 -33.28125 L 22.703125 -33.28125 L 22.703125 -29.78125 L 6.65625 -29.78125 L 6.65625 -18.875 L 20.8125 -18.875 L 20.8125 -15.53125 L 6.65625 -15.53125 L 6.65625 -3.5 L 23.171875 -3.5 L 23.171875 0 Z M 2.828125 0 "/></g></g></g><g fill="#2563eb" fill-opacity="1"><g transform="translate(58.416286, 36.090415)"><g><path d="M 0.46875 0 L 11.84375 -33.28125 L 16.75 -33.28125 L 28.140625 0 L 24.078125 0 L 21.4375 -7.984375 L 7.21875 -7.984375 L 4.578125 0 Z M 8.265625 -11.46875 L 20.34375 -11.46875 L 14.390625 -29.59375 L 14.296875 -29.59375 Z M 8.265625 -11.46875 "/></g></g></g><g fill="#2563eb" fill-opacity="1"><g transform="translate(93.100809, 36.090415)"><g><path d="M 24.265625 0.890625 C 23.003906 0.890625 22.007812 0.53125 21.28125 -0.1875 C 20.5625 -0.914062 20.046875 -1.828125 19.734375 -2.921875 L 17.796875 -10 C 17.484375 -11.257812 16.898438 -12.273438 16.046875 -13.046875 C 15.203125 -13.816406 14.226562 -14.203125 13.125 -14.203125 L 6.75 -14.203125 L 6.75 0 L 2.828125 0 L 2.828125 -33.28125 L 15.71875 -33.28125 C 17.882812 -33.28125 19.796875 -32.867188 21.453125 -32.046875 C 23.109375 -31.234375 24.398438 -30.109375 25.328125 -28.671875 C 26.253906 -27.242188 26.71875 -25.570312 26.71875 -23.65625 C 26.71875 -21.507812 25.992188 -19.609375 24.546875 -17.953125 C 23.097656 -16.304688 21.097656 -15.265625 18.546875 -14.828125 L 18.546875 -14.78125 C 19.398438 -14.332031 20.085938 -13.726562 20.609375 -12.96875 C 21.128906 -12.21875 21.515625 -11.359375 21.765625 -10.390625 L 23.3125 -4.34375 C 23.46875 -3.78125 23.671875 -3.316406 23.921875 -2.953125 C 24.179688 -2.585938 24.546875 -2.40625 25.015625 -2.40625 C 25.867188 -2.40625 26.65625 -3.050781 27.375 -4.34375 L 29.359375 -2.03125 C 28.765625 -1.113281 28.015625 -0.398438 27.109375 0.109375 C 26.210938 0.628906 25.265625 0.890625 24.265625 0.890625 Z M 6.75 -17.703125 L 15.53125 -17.703125 C 17.664062 -17.703125 19.410156 -18.257812 20.765625 -19.375 C 22.117188 -20.488281 22.796875 -21.929688 22.796875 -23.703125 C 22.796875 -25.554688 22.117188 -27.03125 20.765625 -28.125 C 19.410156 -29.226562 17.664062 -29.78125 15.53125 -29.78125 L 6.75 -29.78125 Z M 6.75 -17.703125 "/></g></g></g><g fill="#2563eb" fill-opacity="1"><g transform="translate(128.540317, 36.090415)"><g><path d="M 2.828125 0 L 2.828125 -33.28125 L 8.359375 -33.28125 L 22.28125 -5.09375 L 22.375 -5.09375 L 22.375 -33.28125 L 26.34375 -33.28125 L 26.34375 0 L 20.8125 0 L 6.84375 -28.1875 L 6.75 -28.1875 L 6.75 0 Z M 2.828125 0 "/></g></g></g><g fill="#2563eb" fill-opacity="1"><g transform="translate(163.791067, 36.090415)"><g><path d="M 4.53125 0.5625 C 3.738281 0.5625 3.097656 0.320312 2.609375 -0.15625 C 2.128906 -0.644531 1.890625 -1.285156 1.890625 -2.078125 C 1.890625 -2.828125 2.128906 -3.445312 2.609375 -3.9375 C 3.097656 -4.425781 3.738281 -4.671875 4.53125 -4.671875 C 5.320312 -4.671875 5.96875 -4.425781 6.46875 -3.9375 C 6.96875 -3.445312 7.21875 -2.828125 7.21875 -2.078125 C 7.21875 -1.285156 6.96875 -0.644531 6.46875 -0.15625 C 5.96875 0.320312 5.320312 0.5625 4.53125 0.5625 Z M 4.53125 0.5625 "/></g></g></g><g fill="#2563eb" fill-opacity="1"><g transform="translate(178.987332, 36.090415)"><g/></g></g><g fill="#2563eb" fill-opacity="1"><g transform="translate(195.552026, 36.090415)"><g><path d="M 17 1.03125 C 13.945312 1.03125 11.257812 0.289062 8.9375 -1.1875 C 6.625 -2.664062 4.832031 -4.722656 3.5625 -7.359375 C 2.289062 -10.003906 1.65625 -13.085938 1.65625 -16.609375 C 1.65625 -20.171875 2.289062 -23.269531 3.5625 -25.90625 C 4.832031 -28.550781 6.609375 -30.613281 8.890625 -32.09375 C 11.171875 -33.570312 13.84375 -34.3125 16.90625 -34.3125 C 18.914062 -34.3125 20.785156 -33.898438 22.515625 -33.078125 C 24.242188 -32.265625 25.742188 -31.132812 27.015625 -29.6875 C 28.296875 -28.238281 29.234375 -26.539062 29.828125 -24.59375 L 26.109375 -23.40625 C 25.410156 -25.644531 24.226562 -27.441406 22.5625 -28.796875 C 20.894531 -30.148438 18.988281 -30.828125 16.84375 -30.828125 C 14.613281 -30.828125 12.648438 -30.234375 10.953125 -29.046875 C 9.253906 -27.867188 7.9375 -26.21875 7 -24.09375 C 6.070312 -21.96875 5.609375 -19.472656 5.609375 -16.609375 C 5.609375 -13.816406 6.101562 -11.359375 7.09375 -9.234375 C 8.09375 -7.109375 9.488281 -5.453125 11.28125 -4.265625 C 13.070312 -3.085938 15.164062 -2.5 17.5625 -2.5 C 19.789062 -2.5 21.765625 -3.015625 23.484375 -4.046875 C 25.203125 -5.085938 26.539062 -6.535156 27.5 -8.390625 C 28.457031 -10.253906 28.9375 -12.414062 28.9375 -14.875 L 13.171875 -14.875 L 13.171875 -18.359375 L 32.90625 -18.359375 L 32.90625 0 L 29.59375 0 L 29.21875 -6.09375 L 29.171875 -6.09375 C 27.910156 -3.882812 26.222656 -2.144531 24.109375 -0.875 C 22.003906 0.394531 19.632812 1.03125 17 1.03125 Z M 17 1.03125 "/></g></g></g><g fill="#2563eb" fill-opacity="1"><g transform="translate(236.418035, 36.090415)"><g><path d="M 24.265625 0.890625 C 23.003906 0.890625 22.007812 0.53125 21.28125 -0.1875 C 20.5625 -0.914062 20.046875 -1.828125 19.734375 -2.921875 L 17.796875 -10 C 17.484375 -11.257812 16.898438 -12.273438 16.046875 -13.046875 C 15.203125 -13.816406 14.226562 -14.203125 13.125 -14.203125 L 6.75 -14.203125 L 6.75 0 L 2.828125 0 L 2.828125 -33.28125 L 15.71875 -33.28125 C 17.882812 -33.28125 19.796875 -32.867188 21.453125 -32.046875 C 23.109375 -31.234375 24.398438 -30.109375 25.328125 -28.671875 C 26.253906 -27.242188 26.71875 -25.570312 26.71875 -23.65625 C 26.71875 -21.507812 25.992188 -19.609375 24.546875 -17.953125 C 23.097656 -16.304688 21.097656 -15.265625 18.546875 -14.828125 L 18.546875 -14.78125 C 19.398438 -14.332031 20.085938 -13.726562 20.609375 -12.96875 C 21.128906 -12.21875 21.515625 -11.359375 21.765625 -10.390625 L 23.3125 -4.34375 C 23.46875 -3.78125 23.671875 -3.316406 23.921875 -2.953125 C 24.179688 -2.585938 24.546875 -2.40625 25.015625 -2.40625 C 25.867188 -2.40625 26.65625 -3.050781 27.375 -4.34375 L 29.359375 -2.03125 C 28.765625 -1.113281 28.015625 -0.398438 27.109375 0.109375 C 26.210938 0.628906 25.265625 0.890625 24.265625 0.890625 Z M 6.75 -17.703125 L 15.53125 -17.703125 C 17.664062 -17.703125 19.410156 -18.257812 20.765625 -19.375 C 22.117188 -20.488281 22.796875 -21.929688 22.796875 -23.703125 C 22.796875 -25.554688 22.117188 -27.03125 20.765625 -28.125 C 19.410156 -29.226562 17.664062 -29.78125 15.53125 -29.78125 L 6.75 -29.78125 Z M 6.75 -17.703125 "/></g></g></g><g fill="#2563eb" fill-opacity="1"><g transform="translate(271.857543, 36.090415)"><g><path d="M 17.515625 1.03125 C 14.335938 1.03125 11.550781 0.300781 9.15625 -1.15625 C 6.757812 -2.613281 4.910156 -4.664062 3.609375 -7.3125 C 2.304688 -9.957031 1.65625 -13.054688 1.65625 -16.609375 C 1.65625 -20.203125 2.304688 -23.316406 3.609375 -25.953125 C 4.910156 -28.597656 6.757812 -30.648438 9.15625 -32.109375 C 11.550781 -33.578125 14.335938 -34.3125 17.515625 -34.3125 C 20.722656 -34.3125 23.515625 -33.585938 25.890625 -32.140625 C 28.265625 -30.691406 30.101562 -28.644531 31.40625 -26 C 32.71875 -23.363281 33.375 -20.25 33.375 -16.65625 C 33.375 -13.070312 32.71875 -9.957031 31.40625 -7.3125 C 30.101562 -4.664062 28.265625 -2.613281 25.890625 -1.15625 C 23.515625 0.300781 20.722656 1.03125 17.515625 1.03125 Z M 17.515625 -2.5 C 19.929688 -2.5 22.03125 -3.082031 23.8125 -4.25 C 25.59375 -5.414062 26.96875 -7.0625 27.9375 -9.1875 C 28.914062 -11.3125 29.40625 -13.785156 29.40625 -16.609375 C 29.40625 -19.472656 28.914062 -21.96875 27.9375 -24.09375 C 26.96875 -26.21875 25.59375 -27.867188 23.8125 -29.046875 C 22.03125 -30.234375 19.929688 -30.828125 17.515625 -30.828125 C 15.117188 -30.828125 13.023438 -30.234375 11.234375 -29.046875 C 9.441406 -27.867188 8.046875 -26.21875 7.046875 -24.09375 C 6.054688 -21.96875 5.5625 -19.472656 5.5625 -16.609375 C 5.5625 -13.785156 6.054688 -11.3125 7.046875 -9.1875 C 8.046875 -7.0625 9.441406 -5.414062 11.234375 -4.25 C 13.023438 -3.082031 15.117188 -2.5 17.515625 -2.5 Z M 17.515625 -2.5 "/></g></g></g><g fill="#2563eb" fill-opacity="1"><g transform="translate(312.959502, 36.090415)"><g><path d="M 8.828125 0 L 0.46875 -33.28125 L 4.53125 -33.28125 L 11.65625 -4.015625 L 11.75 -4.015625 L 18.265625 -33.28125 L 23.890625 -33.28125 L 30.453125 -4.015625 L 30.546875 -4.015625 L 37.578125 -33.28125 L 41.640625 -33.28125 L 33.328125 0 L 27.65625 0 L 21.140625 -28.890625 L 21.046875 -28.890625 L 14.484375 0 Z M 8.828125 0 "/></g></g></g><g fill="#2563eb" fill-opacity="1"><g transform="translate(361.139503, 36.090415)"><g><path d="M 4.53125 0.5625 C 3.738281 0.5625 3.097656 0.320312 2.609375 -0.15625 C 2.128906 -0.644531 1.890625 -1.285156 1.890625 -2.078125 C 1.890625 -2.828125 2.128906 -3.445312 2.609375 -3.9375 C 3.097656 -4.425781 3.738281 -4.671875 4.53125 -4.671875 C 5.320312 -4.671875 5.96875 -4.425781 6.46875 -3.9375 C 6.96875 -3.445312 7.21875 -2.828125 7.21875 -2.078125 C 7.21875 -1.285156 6.96875 -0.644531 6.46875 -0.15625 C 5.96875 0.320312 5.320312 0.5625 4.53125 0.5625 Z M 4.53125 0.5625 "/></g></g></g><g fill="#2563eb" fill-opacity="1"><g transform="translate(376.335768, 36.090415)"><g/></g></g><g fill="#2563eb" fill-opacity="1"><g transform="translate(392.900462, 36.090415)"><g><path d="M 13.96875 1.03125 C 11.519531 1.03125 9.332031 0.535156 7.40625 -0.453125 C 5.488281 -1.441406 3.960938 -2.804688 2.828125 -4.546875 C 1.703125 -6.296875 1.070312 -8.304688 0.9375 -10.578125 L 4.859375 -11.375 C 4.921875 -9.613281 5.351562 -8.0625 6.15625 -6.71875 C 6.957031 -5.382812 8.039062 -4.347656 9.40625 -3.609375 C 10.78125 -2.867188 12.332031 -2.5 14.0625 -2.5 C 16.363281 -2.5 18.175781 -3.082031 19.5 -4.25 C 20.820312 -5.414062 21.484375 -6.863281 21.484375 -8.59375 C 21.484375 -9.976562 21.007812 -11.132812 20.0625 -12.0625 C 19.113281 -12.988281 17.585938 -13.78125 15.484375 -14.4375 L 10.34375 -16 C 7.664062 -16.820312 5.703125 -17.929688 4.453125 -19.328125 C 3.210938 -20.734375 2.59375 -22.535156 2.59375 -24.734375 C 2.59375 -26.554688 3 -28.191406 3.8125 -29.640625 C 4.632812 -31.085938 5.816406 -32.226562 7.359375 -33.0625 C 8.898438 -33.894531 10.742188 -34.3125 12.890625 -34.3125 C 14.898438 -34.3125 16.675781 -33.898438 18.21875 -33.078125 C 19.757812 -32.265625 20.984375 -31.125 21.890625 -29.65625 C 22.804688 -28.195312 23.34375 -26.492188 23.5 -24.546875 L 19.78125 -23.65625 C 19.65625 -25.789062 18.960938 -27.519531 17.703125 -28.84375 C 16.441406 -30.164062 14.835938 -30.828125 12.890625 -30.828125 C 10.929688 -30.828125 9.378906 -30.273438 8.234375 -29.171875 C 7.085938 -28.066406 6.515625 -26.710938 6.515625 -25.109375 C 6.515625 -23.722656 6.9375 -22.585938 7.78125 -21.703125 C 8.632812 -20.828125 10.003906 -20.109375 11.890625 -19.546875 L 17 -17.984375 C 19.851562 -17.160156 21.972656 -16.019531 23.359375 -14.5625 C 24.742188 -13.101562 25.4375 -11.222656 25.4375 -8.921875 C 25.4375 -7.066406 24.976562 -5.382812 24.0625 -3.875 C 23.15625 -2.363281 21.84375 -1.164062 20.125 -0.28125 C 18.414062 0.59375 16.363281 1.03125 13.96875 1.03125 Z M 13.96875 1.03125 "/></g></g></g><g fill="#2563eb" fill-opacity="1"><g transform="translate(425.36719, 36.090415)"><g><path d="M 14.4375 1.03125 C 11.988281 1.03125 9.859375 0.53125 8.046875 -0.46875 C 6.234375 -1.476562 4.832031 -2.898438 3.84375 -4.734375 C 2.851562 -6.578125 2.359375 -8.726562 2.359375 -11.1875 L 2.359375 -33.28125 L 6.28125 -33.28125 L 6.28125 -11.1875 C 6.28125 -9.519531 6.609375 -8.023438 7.265625 -6.703125 C 7.929688 -5.378906 8.875 -4.347656 10.09375 -3.609375 C 11.320312 -2.867188 12.769531 -2.5 14.4375 -2.5 C 16.957031 -2.5 18.941406 -3.289062 20.390625 -4.875 C 21.835938 -6.46875 22.5625 -8.585938 22.5625 -11.234375 L 22.5625 -33.28125 L 26.484375 -33.28125 L 26.484375 -11.1875 C 26.484375 -8.726562 25.984375 -6.578125 24.984375 -4.734375 C 23.992188 -2.898438 22.601562 -1.476562 20.8125 -0.46875 C 19.019531 0.53125 16.894531 1.03125 14.4375 1.03125 Z M 14.4375 1.03125 "/></g></g></g><g fill="#2563eb" fill-opacity="1"><g transform="translate(460.287609, 36.090415)"><g><path d="M 17.140625 0.984375 C 13.960938 0.984375 11.207031 0.269531 8.875 -1.15625 C 6.539062 -2.582031 4.753906 -4.609375 3.515625 -7.234375 C 2.273438 -9.867188 1.65625 -12.992188 1.65625 -16.609375 C 1.65625 -20.265625 2.234375 -23.410156 3.390625 -26.046875 C 4.554688 -28.691406 6.222656 -30.726562 8.390625 -32.15625 C 10.566406 -33.59375 13.148438 -34.3125 16.140625 -34.3125 C 19.410156 -34.3125 22.171875 -33.269531 24.421875 -31.1875 C 26.671875 -29.113281 28.144531 -26.253906 28.84375 -22.609375 L 25.109375 -21.71875 C 24.640625 -24.613281 23.601562 -26.851562 22 -28.4375 C 20.394531 -30.03125 18.425781 -30.828125 16.09375 -30.828125 C 13.925781 -30.828125 12.054688 -30.25 10.484375 -29.09375 C 8.910156 -27.945312 7.695312 -26.3125 6.84375 -24.1875 C 5.988281 -22.0625 5.5625 -19.535156 5.5625 -16.609375 C 5.59375 -13.710938 6.070312 -11.203125 7 -9.078125 C 7.9375 -6.960938 9.269531 -5.335938 11 -4.203125 C 12.726562 -3.066406 14.773438 -2.5 17.140625 -2.5 C 19.929688 -2.5 22.285156 -3.46875 24.203125 -5.40625 C 26.128906 -7.34375 27.328125 -9.976562 27.796875 -13.3125 L 31.578125 -12.3125 C 31.171875 -9.582031 30.3125 -7.222656 29 -5.234375 C 27.695312 -3.253906 26.03125 -1.722656 24 -0.640625 C 21.96875 0.441406 19.679688 0.984375 17.140625 0.984375 Z M 17.140625 0.984375 "/></g></g></g><g fill="#2563eb" fill-opacity="1"><g transform="translate(498.888659, 36.090415)"><g><path d="M 17.140625 0.984375 C 13.960938 0.984375 11.207031 0.269531 8.875 -1.15625 C 6.539062 -2.582031 4.753906 -4.609375 3.515625 -7.234375 C 2.273438 -9.867188 1.65625 -12.992188 1.65625 -16.609375 C 1.65625 -20.265625 2.234375 -23.410156 3.390625 -26.046875 C 4.554688 -28.691406 6.222656 -30.726562 8.390625 -32.15625 C 10.566406 -33.59375 13.148438 -34.3125 16.140625 -34.3125 C 19.410156 -34.3125 22.171875 -33.269531 24.421875 -31.1875 C 26.671875 -29.113281 28.144531 -26.253906 28.84375 -22.609375 L 25.109375 -21.71875 C 24.640625 -24.613281 23.601562 -26.851562 22 -28.4375 C 20.394531 -30.03125 18.425781 -30.828125 16.09375 -30.828125 C 13.925781 -30.828125 12.054688 -30.25 10.484375 -29.09375 C 8.910156 -27.945312 7.695312 -26.3125 6.84375 -24.1875 C 5.988281 -22.0625 5.5625 -19.535156 5.5625 -16.609375 C 5.59375 -13.710938 6.070312 -11.203125 7 -9.078125 C 7.9375 -6.960938 9.269531 -5.335938 11 -4.203125 C 12.726562 -3.066406 14.773438 -2.5 17.140625 -2.5 C 19.929688 -2.5 22.285156 -3.46875 24.203125 -5.40625 C 26.128906 -7.34375 27.328125 -9.976562 27.796875 -13.3125 L 31.578125 -12.3125 C 31.171875 -9.582031 30.3125 -7.222656 29 -5.234375 C 27.695312 -3.253906 26.03125 -1.722656 24 -0.640625 C 21.96875 0.441406 19.679688 0.984375 17.140625 0.984375 Z M 17.140625 0.984375 "/></g></g></g><g fill="#2563eb" fill-opacity="1"><g transform="translate(537.489708, 36.090415)"><g><path d="M 2.828125 0 L 2.828125 -33.28125 L 22.703125 -33.28125 L 22.703125 -29.78125 L 6.65625 -29.78125 L 6.65625 -18.875 L 20.8125 -18.875 L 20.8125 -15.53125 L 6.65625 -15.53125 L 6.65625 -3.5 L 23.171875 -3.5 L 23.171875 0 Z M 2.828125 0 "/></g></g></g><g fill="#2563eb" fill-opacity="1"><g transform="translate(567.927454, 36.090415)"><g><path d="M 2.828125 0 L 2.828125 -33.28125 L 22.703125 -33.28125 L 22.703125 -29.78125 L 6.65625 -29.78125 L 6.65625 -18.875 L 20.8125 -18.875 L 20.8125 -15.53125 L 6.65625 -15.53125 L 6.65625 -3.5 L 23.171875 -3.5 L 23.171875 0 Z M 2.828125 0 "/></g></g></g><g fill="#2563eb" fill-opacity="1"><g transform="translate(598.365091, 36.090415)"><g><path d="M 2.828125 0 L 2.828125 -33.28125 L 13.40625 -33.28125 C 18.65625 -33.28125 22.648438 -31.832031 25.390625 -28.9375 C 28.128906 -26.039062 29.5 -21.929688 29.5 -16.609375 C 29.5 -11.328125 28.128906 -7.238281 25.390625 -4.34375 C 22.648438 -1.445312 18.65625 0 13.40625 0 Z M 6.75 -3.5 L 13.40625 -3.5 C 17.4375 -3.5 20.476562 -4.640625 22.53125 -6.921875 C 24.59375 -9.203125 25.625 -12.429688 25.625 -16.609375 C 25.59375 -20.828125 24.554688 -24.078125 22.515625 -26.359375 C 20.472656 -28.640625 17.4375 -29.78125 13.40625 -29.78125 L 6.75 -29.78125 Z M 6.75 -3.5 "/></g></g></g></g></g></svg>